<mxfile host="65bd71144e">
    <diagram id="fiLaPkWE4RFjkTtEyRPK" name="Page-1">
        <mxGraphModel dx="591" dy="691" grid="0" gridSize="10" guides="1" tooltips="1" connect="1" arrows="1" fold="1" page="1" pageScale="1" pageWidth="850" pageHeight="1100" math="0" shadow="0">
            <root>
                <mxCell id="0"/>
                <mxCell id="1" parent="0"/>
                <mxCell id="2" value="struct {10,20}" style="rounded=0;whiteSpace=wrap;html=1;" parent="1" vertex="1">
                    <mxGeometry x="240" y="90" width="100" height="40" as="geometry"/>
                </mxCell>
                <mxCell id="3" value="struct {10,20}" style="rounded=0;whiteSpace=wrap;html=1;" parent="1" vertex="1">
                    <mxGeometry x="340" y="90" width="100" height="40" as="geometry"/>
                </mxCell>
                <mxCell id="4" value="struct {10,20}" style="rounded=0;whiteSpace=wrap;html=1;" parent="1" vertex="1">
                    <mxGeometry x="440" y="90" width="100" height="40" as="geometry"/>
                </mxCell>
                <mxCell id="5" value="p" style="text;html=1;strokeColor=none;fillColor=none;align=center;verticalAlign=middle;whiteSpace=wrap;rounded=0;" parent="1" vertex="1">
                    <mxGeometry x="220" y="80" width="60" height="30" as="geometry"/>
                </mxCell>
                <mxCell id="6" value="p2" style="text;html=1;strokeColor=none;fillColor=none;align=center;verticalAlign=middle;whiteSpace=wrap;rounded=0;" parent="1" vertex="1">
                    <mxGeometry x="320" y="80" width="60" height="30" as="geometry"/>
                </mxCell>
                <mxCell id="7" value="p3" style="text;html=1;strokeColor=none;fillColor=none;align=center;verticalAlign=middle;whiteSpace=wrap;rounded=0;" parent="1" vertex="1">
                    <mxGeometry x="420" y="80" width="60" height="30" as="geometry"/>
                </mxCell>
                <mxCell id="9" style="edgeStyle=none;html=1;" parent="1" source="8" target="2" edge="1">
                    <mxGeometry relative="1" as="geometry"/>
                </mxCell>
                <mxCell id="8" value="pp&lt;br&gt;[int64的指针]" style="text;html=1;strokeColor=none;fillColor=none;align=center;verticalAlign=middle;whiteSpace=wrap;rounded=0;" parent="1" vertex="1">
                    <mxGeometry x="110" y="95" width="90" height="30" as="geometry"/>
                </mxCell>
            </root>
        </mxGraphModel>
    </diagram>
    <diagram id="S62LBUNu5rHMGmHLkPpb" name="Page-2">
        <mxGraphModel dx="831" dy="691" grid="1" gridSize="10" guides="1" tooltips="1" connect="1" arrows="1" fold="1" page="1" pageScale="1" pageWidth="850" pageHeight="1100" math="0" shadow="0">
            <root>
                <mxCell id="rZzTyrERdSYTAZPRkup5-0"/>
                <mxCell id="rZzTyrERdSYTAZPRkup5-1" parent="rZzTyrERdSYTAZPRkup5-0"/>
                <mxCell id="rZzTyrERdSYTAZPRkup5-2" value="" style="rounded=0;whiteSpace=wrap;html=1;" vertex="1" parent="rZzTyrERdSYTAZPRkup5-1">
                    <mxGeometry x="270" y="180" width="150" height="320" as="geometry"/>
                </mxCell>
                <mxCell id="rZzTyrERdSYTAZPRkup5-3" value="value" style="rounded=1;whiteSpace=wrap;html=1;" vertex="1" parent="rZzTyrERdSYTAZPRkup5-1">
                    <mxGeometry x="330" y="220" width="90" height="40" as="geometry"/>
                </mxCell>
                <mxCell id="rZzTyrERdSYTAZPRkup5-4" value="key" style="rounded=1;whiteSpace=wrap;html=1;" vertex="1" parent="rZzTyrERdSYTAZPRkup5-1">
                    <mxGeometry x="270" y="220" width="60" height="40" as="geometry"/>
                </mxCell>
                <mxCell id="rZzTyrERdSYTAZPRkup5-5" value="map[k]" style="text;html=1;align=center;verticalAlign=middle;resizable=0;points=[];autosize=1;strokeColor=none;fillColor=none;" vertex="1" parent="rZzTyrERdSYTAZPRkup5-1">
                    <mxGeometry x="425" y="230" width="50" height="20" as="geometry"/>
                </mxCell>
                <mxCell id="rZzTyrERdSYTAZPRkup5-6" value="value" style="rounded=1;whiteSpace=wrap;html=1;" vertex="1" parent="rZzTyrERdSYTAZPRkup5-1">
                    <mxGeometry x="120" y="220" width="90" height="40" as="geometry"/>
                </mxCell>
                <mxCell id="rZzTyrERdSYTAZPRkup5-7" value="pp = map[k]" style="text;html=1;align=center;verticalAlign=middle;resizable=0;points=[];autosize=1;strokeColor=none;fillColor=none;" vertex="1" parent="rZzTyrERdSYTAZPRkup5-1">
                    <mxGeometry x="40" y="220" width="80" height="20" as="geometry"/>
                </mxCell>
            </root>
        </mxGraphModel>
    </diagram>
</mxfile>